<?xml version="1.0" encoding="utf-8"?>
<!-- Generator: Adobe Illustrator 21.0.0, SVG Export Plug-In . SVG Version: 6.00 Build 0)  -->
<svg version="1.1" id="Layer_1" xmlns="http://www.w3.org/2000/svg" xmlns:xlink="http://www.w3.org/1999/xlink" x="0px" y="0px"
	 viewBox="0 0 595.3 841.9" style="enable-background:new 0 0 595.3 841.9;" xml:space="preserve">
<style type="text/css">
	.st0{fill:#603913;}
	.st1{fill:#F7941D;stroke:#FFFFFF;stroke-width:15;stroke-miterlimit:10;}
	.st2{font-family:'NexaLight';}
	.st3{font-size:57.9757px;}
	.st4{letter-spacing:-0.7;}
	.st5{fill:#F7941D;}
	.st6{fill:#FFFFFF;}
</style>
<g>
	<g>
		<path class="st0" d="M-23.8,217.9c26.3,0,47.7,21.4,47.7,47.7v90.4c0,26.3-21.4,47.7-47.7,47.7h-112.4
			c-26.3,0-47.7-21.4-47.7-47.7v-90.4c0-26.3,21.4-47.7,47.7-47.7H-23.8 M-23.8,207.9h-112.4c-31.8,0-57.7,26-57.7,57.7v90.4
			c0,31.8,26,57.7,57.7,57.7h112.4c31.8,0,57.7-26,57.7-57.7v-90.4C34,233.9,8,207.9-23.8,207.9L-23.8,207.9z"/>
	</g>
	<g>
		<path class="st1" d="M142.9,263.7v41.1h-17.2v58.8H63.7V207.9h61.9v55.8H142.9z M215.5,207.9v155.8h-61.9V207.9H215.5z"/>
		<path class="st1" d="M342.8,363.7V251.4c0-13.9,5.7-25.2,17.1-34c11.4-8.8,26-13.2,44-13.2c21.5,0,38,7.3,49.4,22
			c6.3-7.6,13.5-13.2,21.7-16.7c8.2-3.5,18.4-5.3,30.5-5.3c18.8,0,33.2,4.4,43.2,13.2c10,8.8,15,21.5,15,38.2v108.1h-62.3V262.3
			c0-4.5-0.5-7.7-1.6-9.6c-1-1.9-3.1-2.8-6.3-2.8c-6.3,0-9.4,3.9-9.4,11.7v102h-62V262.3c0-4.4-0.5-7.5-1.6-9.5
			c-1-1.9-3.2-2.9-6.6-2.9c-6.1,0-9.1,4.1-9.1,12.4v101.3H342.8z"/>
		<path class="st1" d="M624.5,250.6v110.9h-54.9V205.7h71.6c32.7,0,58.6,6.9,77.4,20.8c18.9,13.9,28.3,32.5,28.3,55.8
			c0,23.5-9.1,42.7-27.2,57.6c-18.1,14.9-41.4,22.3-69.9,22.3c-1.1,0-6.6-0.2-16.4-0.5v-45.8h8.9c32.2,0,48.3-11.2,48.3-33.6
			c0-21.2-15.8-31.8-47.5-31.8H624.5z"/>
		<path class="st1" d="M306.2,281.5v41.6h-20.6v40.6h-62.3V267c0-19,7.8-34.2,23.5-45.7c15.6-11.4,34-17.2,55.1-17.2
			c12.1,0,23.7,2.1,34.9,6.2c11.2,4.1,20.8,10.2,28.9,18.1l-50.7,27.8c-2.7-6.1-7.8-9.1-15.3-9.1c-9.4,0-14.1,5-14.1,14.9v19.4
			H306.2z"/>
	</g>
	<text transform="matrix(1.3399 0 0 1 45.1997 413.8696)" class="st0 st2 st3 st4">Analytics Dashboard</text>
	<g>
		<path class="st5" d="M-21.2,270.6c0-7.6-4.2-12-10.6-11.7c-6.1,0.2-9.7,4.6-9.8,11.9c-0.1,8.7-0.3,17.5-0.5,26.2
			c0,1.1,0.8,2.9-1.1,3.1c-1.8,0.2-2.7-1.3-2.7-2.9c-0.1-1.2,0.1-2.5,0.1-3.7c0.2-13.1,0.5-26.2,0.5-39.3c0-7.7-3.8-12-10.4-12
			c-6.1,0-9.9,4.2-10.1,11.5c-0.3,11.2-0.4,22.5-0.6,33.7c0,1.3,0.7,3.4-1.6,3.5c-2.8,0.2-2.2-2.1-2.2-3.6c0-3.5,0.2-7.1,0.3-10.6
			c0.1-11.7,0.4-23.3,0.1-35c-0.1-5.4-4.1-8.3-9.7-8.5c-5.6-0.2-9.8,2.7-10.3,7.9c-0.9,10.6-0.7,21.2-1.6,31.8
			c-0.5,6.4,1.6,13.1-1.1,19.7c-2.8-1.4-2.2-3.5-2.2-5.1c0-9.9,0-19.8,0.4-29.8c0.3-8.2-2.6-12.9-9.1-13.3
			c-6.8-0.4-10.7,3.7-11.2,11.8c-0.1,1.2-0.1,2.5-0.1,3.7c-0.2,14.6-0.5,29.1-0.7,43.7c0,2,0.4,4.2-3.1,5.9c-1.7-3.8-3.2-7.5-5-11
			c-3.6-7.2-11.1-10.4-18-7.7c-7.4,2.8-10.5,10.1-7,17.8c8.2,18,16,36.2,25.1,53.8c6.8,13.2,17.2,21.8,30.4,25.7
			c1.6-3,2.4-6.2,2.2-9.9c-0.1-2.8-1.1-5.8-2.2-8.5c-2.9-7.4-5.5-14.8-5.2-22.7c0.3-9.2,6-14.7,16.1-15.4
			c23.4-1.8,43.4,17.9,39.5,38.9c-0.5,2.5-1.1,5.1-1.6,7.5c-0.6,1.6-1.2,3.2-1.8,4.7c7.9-4.8,14.2-11.9,19.1-20.9
			c4.8-9.1,5-18.7,4.9-28.6C-22,312.3-21.3,291.5-21.2,270.6z M-84.8,321.6c-1.4,4.2-3.9,7-8.4,7.8c-4.5,0.7-8.1-0.9-11-4.2
			c-4-4.4-4.5-10.9-1.4-15.5c3.5-5.1,10.6-6.2,15.7-2.1C-85,311.5-83.7,316.4-84.8,321.6z M-61.8,323c-1.2,3.8-6.1,6.1-10.3,4.8
			c-3.9-1.1-6.3-5.2-5.2-8.9c1.1-3.9,5.4-6.1,9.8-5C-63.1,315.2-60.6,319.2-61.8,323z M-55,334.4c-3.1-0.8-5-3.9-4.1-6.7
			c0.9-2.9,4.1-4.5,7.3-3.7c3.2,0.8,5,3.8,4.1,6.7C-48.6,333.5-51.8,335.2-55,334.4z M-43.9,344.2c-2.8-0.9-4.2-3.5-3.3-6.1
			c0.9-2.6,3.7-3.8,6.6-2.9c2.8,0.9,4.4,3.7,3.4,6.1C-38.2,343.7-41.2,345-43.9,344.2z M-31.8,352.7c-0.8,2.4-3.6,3.8-6.3,3
			c-2.7-0.8-4.2-3.3-3.4-5.8c0.8-2.5,3.6-3.9,6.2-3.2C-32.6,347.5-31,350.1-31.8,352.7z"/>
		<g>
			<path class="st5" d="M-19.7,270.6c-0.3-7.8-5.2-14.4-13.7-13.1c-9.5,1.5-9.7,11.2-9.8,18.8c-0.1,3.4-0.1,6.9-0.2,10.3
				c-0.1,2.7,0.9,7.9-0.2,10.3c0,0.3,0.1,0.6,0.1,0.9c-0.8-1.4-1.1-2.9-0.8-4.5c-0.1-1.3,0-2.7,0.1-3.9c0.1-4.3,0.1-8.5,0.2-12.8
				c0.1-6.9,0.3-13.8,0.3-20.7c0-4.2-0.2-8.6-3.1-11.9c-4.4-4.9-13.2-4.8-17.4,0.3c-2.6,3.2-2.9,7.2-3,11.1
				c-0.3,7.9-0.3,15.9-0.4,23.8c0,2.3,0.8,6.8-0.1,8.8c-1.1,2.4-0.8-0.8-0.8-1c-0.2-1,0-2.5,0.1-3.5c0.2-7.5,0.3-15.1,0.4-22.6
				c0.1-6.7,0.9-14.1-0.2-20.7c-0.5-3.3-2.3-5.9-5.3-7.4c-3.7-1.8-9-1.8-12.6,0.3c-3.7,2.1-4.7,5.7-5.1,9.8
				c-0.7,8.1-0.6,16.2-1.1,24.3c-0.4,8,1.2,17.3-1.5,24.9c0.7-0.3,1.5-0.6,2.2-0.9c-2.6-1.7-1.5-7.3-1.5-9.8c0-3.3,0-6.6,0-9.9
				c0.1-6.1,1-12.5,0.1-18.5c-1.1-7.4-7.4-11.8-14.8-9.7c-9.2,2.6-8.3,14.1-8.4,21.6c-0.1,7.3-0.2,14.6-0.3,21.9
				c-0.1,3.6-0.1,7.3-0.2,10.9c0,3.3,1,8.6-2.4,10.6c0.7,0.2,1.4,0.4,2.1,0.5c-2.6-5.8-4.7-13-9.9-17.1c-4.2-3.3-9.8-4.2-14.8-2.3
				c-4.7,1.7-8.4,5.6-9.3,10.6c-1.2,6.7,3.1,13.2,5.7,19c7.1,15.9,13.7,32.6,22.7,47.6c6.7,11.2,16.9,19.1,29.3,23
				c0.6,0.2,1.4-0.1,1.7-0.7c5.7-11.6-1.6-21.1-4-32.5c-1.3-6.1-2-13.9,2.6-18.9c3.9-4.1,10-4.7,15.3-4.6c11.1,0.4,22.1,6,28.6,15.2
				c7.4,10.5,6.4,22.7,1.7,34.1c-0.5,1.2,1.2,2.4,2.2,1.7c15.8-10.1,24.2-26.2,24.7-44.8C-19.9,316.3-19.8,293.5-19.7,270.6
				c0-1.9-3-1.9-3,0c-0.1,20.5-0.8,41-0.7,61.5c0,9.9-0.1,19.8-4.7,28.9c-4.3,8.3-10.6,15.4-18.5,20.4c0.7,0.6,1.5,1.1,2.2,1.7
				c4.8-11.7,5.8-24.5-1.3-35.4c-6.1-9.5-16.5-15.8-27.6-17.3c-9.8-1.4-22,0.5-25.3,11.4c-1.9,6.3-0.5,13.6,1.3,19.8
				c2.6,8.8,7.7,16.6,3.2,25.8c0.6-0.2,1.1-0.5,1.7-0.7c-10.9-3.4-20-10.1-26.3-19.6c-6.9-10.4-11.7-22.5-16.8-33.8
				c-2.6-5.8-5.3-11.6-7.9-17.4c-2.7-5.9-7.2-13-2.9-19.2c3.7-5.4,11.7-6.5,16.9-2.9c5.3,3.6,7.4,11.2,9.9,16.8
				c0.3,0.7,1.4,0.9,2.1,0.5c2.7-1.6,3.7-3.2,3.8-6.3c0.3-6.2,0.2-12.5,0.3-18.8c0.1-6.6,0.2-13.2,0.3-19.9
				c0.1-5.4-1.2-13.5,2.9-17.8c3.5-3.7,10.8-3,13.2,1.5c2.5,4.8,1.1,11.7,1,16.9c-0.1,6.6-0.1,13.2-0.1,19.8c0,3.4,0,5.5,3,7.4
				c0.9,0.6,1.9,0,2.2-0.9c1.9-5.2,1.4-10.2,1.2-15.7c-0.2-6.1,0.5-12.3,0.7-18.4c0.2-5.9-0.5-12.9,1-18.6c1.7-6.2,12-7.9,15.7-2.4
				c2.7,4,1.2,12.7,1.2,17.4c0,6.5-0.1,13-0.2,19.4c0,4.5-1,9.7-0.3,14.2c0.3,2.1,1.3,3.6,3.7,3.5c2.4-0.1,3-1.7,3.1-3.7
				c0.5-5.9,0.1-12.2,0.2-18.2c0.1-7.9-2.7-31.1,12-26.5c5.4,1.7,5.9,7.2,5.9,12.1c0,6.6-0.1,13.1-0.2,19.7
				c-0.1,5.9-0.2,11.8-0.3,17.7c-0.1,2.6-0.7,6.8,2.6,7.9c2.9,1,4.1-1.1,4.2-3.5c0.4-6.5,0.2-13.1,0.3-19.6c0.1-5.5-1.2-14,4.8-17
				c7.2-3.6,12.5,2.7,12.7,9.4C-22.6,272.6-19.6,272.6-19.7,270.6z"/>
			<path class="st5" d="M-86.3,321.2c-4.9,13.1-23.1,4.5-19.5-7.9c1.5-5.3,7.1-7.8,12.1-6C-87.8,309.4-85.2,315.4-86.3,321.2
				c-0.3,1.9,2.5,2.7,2.9,0.8c1.3-7.3-1.9-14.9-9.2-17.6c-6.6-2.4-14,1.3-16,8.1c-2.1,7,2,15.1,8.9,17.7c7.3,2.8,13.8-1.4,16.4-8.2
				C-82.7,320.2-85.6,319.4-86.3,321.2z"/>
			<path class="st5" d="M-63.2,322.6c-2.8,7.1-15.5,3.8-12.4-3.8C-73,312.2-61.5,315.5-63.2,322.6c-0.5,1.9,2.4,2.7,2.9,0.8
				c2.7-11-14.8-15.8-18.3-5.2c-1.5,4.7,1.5,9.8,6.1,11.1c4.9,1.4,10.3-1.1,12.2-5.9C-59.7,321.6-62.6,320.8-63.2,322.6z"/>
			<path class="st5" d="M-54.6,333c-2-0.6-3.8-2.6-3.1-4.9c0.7-2.2,3.3-3.2,5.4-2.7c2,0.5,3.6,2.4,3.2,4.5
				C-49.6,332.4-52.3,333.4-54.6,333c-1.9-0.4-2.7,2.5-0.8,2.9c3.7,0.8,8-0.8,9.1-4.8c1.1-3.8-1.5-7.5-5.2-8.5c-3.6-1-7.8,0.8-9,4.5
				c-1.3,4,1.3,7.7,5.1,8.8C-53.5,336.4-52.7,333.5-54.6,333z"/>
			<path class="st5" d="M-43.5,342.7c-4.6-1.7-1.9-7.5,2.5-6.1c1.6,0.5,3.1,2.3,2.4,4C-39.3,342.6-41.7,343.2-43.5,342.7
				c-1.9-0.5-2.7,2.4-0.8,2.9c3.3,0.9,7.4-0.5,8.6-4c1.2-3.4-1.2-6.9-4.5-7.9c-3.3-1-7.1,0.4-8.3,3.7c-1.4,3.6,0.9,6.9,4.3,8.2
				C-42.5,346.3-41.7,343.4-43.5,342.7z"/>
			<path class="st5" d="M-33.2,352.3c-1.5,3.7-8.2,2-6.9-2C-38.8,346.3-32.1,348.1-33.2,352.3c-0.5,1.9,2.4,2.7,2.9,0.8
				c2.1-7.9-10.4-11.3-12.7-3.6c-1,3.3,1.1,6.5,4.2,7.5c3.5,1.2,7.1-0.5,8.5-3.9C-29.6,351.3-32.5,350.5-33.2,352.3z"/>
		</g>
	</g>
	<path class="st6" d="M-42.4,371.9c3.9-21.8-16.1-42.2-39.5-40.4c-10.1,0.8-15.7,6.4-16.1,16c-0.3,8.2,2.2,15.9,5.2,23.6
		c1.1,2.8,2.1,5.9,2.2,8.8c0.2,3.9-0.7,7.2-2.2,10.3c5.9,1.8,12.4,2.6,19.3,2.4c10.6-0.3,19.9-3.1,27.6-8c0.7-1.6,1.3-3.3,1.8-4.9
		C-43.4,377.2-42.9,374.5-42.4,371.9z"/>
	<path class="st6" d="M-89.9,307.6c-5.2-4-12.2-3-15.7,2.1c-3.1,4.6-2.5,11,1.4,15.5c2.8,3.2,6.5,4.9,11,4.2c4.5-0.7,7-3.6,8.4-7.8
		C-83.7,316.4-85,311.5-89.9,307.6z"/>
	<path class="st6" d="M-67.5,314c-4.4-1.2-8.7,1-9.8,5c-1.1,3.7,1.3,7.8,5.2,8.9c4.2,1.2,9.1-1.1,10.3-4.8
		C-60.6,319.2-63.1,315.2-67.5,314z"/>
	<path class="st6" d="M-51.8,324c-3.2-0.8-6.4,0.8-7.3,3.7c-0.9,2.8,1,5.9,4.1,6.7c3.1,0.8,6.4-0.9,7.3-3.7
		C-46.8,327.8-48.7,324.8-51.8,324z"/>
	<path class="st6" d="M-37.2,341.2c0.9-2.4-0.7-5.2-3.4-6.1c-2.9-0.9-5.7,0.4-6.6,2.9c-0.9,2.6,0.5,5.2,3.3,6.1
		C-41.2,345-38.2,343.7-37.2,341.2z"/>
	<path class="st6" d="M-35.3,346.7c-2.6-0.7-5.5,0.7-6.2,3.2c-0.8,2.5,0.7,5,3.4,5.8c2.7,0.8,5.5-0.5,6.3-3
		C-31,350.1-32.6,347.5-35.3,346.7z"/>
	<path class="st5" d="M-65.5,385.7c-11.5,1.3-21.7-6-22.5-16c-0.1-1.6-0.2-3.3,2.1-3.5c2.2-0.2,2.3,1.4,2.5,2.9
		c1,7.7,7.2,12.7,15.7,12.8c7.8,0,14.2-5,15.7-12.5c0.3-1.5,0.3-3.4,2.8-3c2.3,0.3,2,2.2,1.8,3.7C-48.7,378.1-56.2,384.7-65.5,385.7
		z"/>
</g>
</svg>
